<svg width="1026" height="267" viewBox="0 0 1026 267" fill="none" xmlns="http://www.w3.org/2000/svg">
<g clip-path="url(#clip0_103_290)">
<path d="M765.747 0V53.8013C765.747 64.2365 761.602 74.2463 754.221 81.6262L703.331 132.508L632.789 203.02H765.747V265.426H552.033V211.805C552.033 201.37 556.179 191.36 563.56 183.98L614.468 133.08L685.127 62.4283H552.03V0H765.743H765.747Z" fill="#005AFF"/>
<path d="M436.995 0V62.4246H396.124C374.388 62.4246 356.768 80.0417 356.768 101.774V265.423H294.352V78.6955C294.352 35.2342 329.592 0 373.064 0H436.995Z" fill="#005AFF"/>
<path d="M1026 78.6955V265.423H963.584V101.774C963.584 80.0417 945.964 62.4246 924.228 62.4246H853.429V265.423H791.012V0H947.288C990.756 0 1026 35.2342 1026 78.6955H1026Z" fill="#005AFF"/>
<path d="M524.677 0H462.26V62.4246H524.677V0Z" fill="#005AFF"/>
<path d="M524.677 87.6893V265.426H462.26V128.924C462.26 106.15 479.88 87.6893 501.617 87.6893H524.677Z" fill="#005AFF"/>
<path d="M217.001 29.4719L190.345 56.1231C180.29 66.177 165.616 69.9513 151.907 66.177C146.004 64.5521 139.789 63.6864 133.37 63.6864C94.8793 63.6864 63.6931 94.8896 63.6931 133.352C63.6931 139.767 64.5589 145.984 66.184 151.886C69.959 165.593 66.184 180.264 56.1286 190.318L29.473 216.969C10.4077 193.3 -0.748306 163.003 0.0404284 130.083C1.73162 59.3839 59.3936 1.73134 130.101 0.0404219C163.03 -0.748184 193.332 10.406 217.001 29.4719Z" fill="#005AFF"/>
<path d="M269.05 136.924C267.355 207.62 209.693 265.272 138.986 266.963C106.061 267.752 75.7587 256.598 52.0894 237.532L78.7449 210.881C88.8003 200.827 103.474 197.052 117.184 200.827C123.086 202.452 129.301 203.317 135.721 203.317C174.189 203.317 205.397 172.133 205.397 133.652C205.397 127.237 204.531 121.02 202.906 115.118C199.131 101.411 202.906 86.7393 212.962 76.6855L239.617 50.0343C258.69 73.6998 269.842 104.001 269.054 136.92L269.05 136.924Z" fill="#005AFF"/>
</g>
<defs>
<clipPath id="clip0_103_290">
<rect width="1026" height="267" fill="white"/>
</clipPath>
</defs>
</svg>
